<?xml version="1.0" encoding="iso-8859-1"?>
<!-- Generator: Adobe Illustrator 19.0.0, SVG Export Plug-In . SVG Version: 6.00 Build 0)  -->
<svg version="1.1" id="Capa_1" xmlns="http://www.w3.org/2000/svg" xmlns:xlink="http://www.w3.org/1999/xlink" x="0px" y="0px"
	 viewBox="0 0 480 480" style="enable-background:new 0 0 480 480;" xml:space="preserve">
<g>
	
		<linearGradient id="SVGID_1_" gradientUnits="userSpaceOnUse" x1="-57.194" y1="587.625" x2="2.495" y2="587.625" gradientTransform="matrix(8 0 0 -8 455 4941)">
		<stop  offset="0" style="stop-color:#4761AC"/>
		<stop  offset="1" style="stop-color:#54C2EF"/>
	</linearGradient>
	<path style="fill:url(#SVGID_1_);" d="M344,0H136C60.924,0.084,0.084,60.924,0,136v208c0.084,75.076,60.924,135.916,136,136h208
		c75.076-0.084,135.916-60.924,136-136V136C479.916,60.924,419.076,0.084,344,0z M464,344c-0.071,66.245-53.755,119.929-120,120H136
		c-66.245-0.071-119.929-53.755-120-120V136C16.071,69.755,69.755,16.071,136,16h208c66.245,0.071,119.929,53.755,120,120V344z"/>
	
		<linearGradient id="SVGID_2_" gradientUnits="userSpaceOnUse" x1="-57.194" y1="587.625" x2="2.495" y2="587.625" gradientTransform="matrix(8 0 0 -8 455 4941)">
		<stop  offset="0" style="stop-color:#4761AC"/>
		<stop  offset="1" style="stop-color:#54C2EF"/>
	</linearGradient>
	<path style="fill:url(#SVGID_2_);" d="M344,32H136C78.588,32.062,32.062,78.588,32,136v216c0.019,0.954,0.209,1.897,0.56,2.784
		C38.15,407.726,82.764,447.93,136,448h208c57.41-0.066,103.934-46.59,104-104V136C447.934,78.59,401.41,32.066,344,32z M136,48h208
		c46.569,0.077,85.023,36.407,87.744,82.896L264,204.704V168h24c13.255,0,24-10.745,24-24V96c0-13.255-10.745-24-24-24h-48
		c-39.746,0.044-71.956,32.254-72,72v102.944l-120,52.8V136C48.057,87.423,87.423,48.057,136,48L136,48z M264,328h24
		c4.418,0,8,3.582,8,8v48c0,4.418-3.582,8-8,8h-24V328z M184,297.376l64-28.16V392h-8c-30.913-0.035-55.965-25.087-56-56V297.376z
		 M48,339.776v-22.56l384-168.96v22.528L48,339.776z M248,211.776l-64,28.16V144c0.035-30.913,25.087-55.965,56-56h8V211.776z
		 M264,152V88h24c4.418,0,8,3.582,8,8v48c0,4.418-3.582,8-8,8H264z M344,432H136c-43.612-0.072-80.601-32.056-86.968-75.2
		L168,304.416V336c0.044,39.746,32.254,71.956,72,72h48c13.255,0,24-10.745,24-24v-48c0-13.255-10.745-24-24-24h-24v-49.824
		l168-73.92V344C431.943,392.577,392.577,431.943,344,432z"/>
</g>
<g>
</g>
<g>
</g>
<g>
</g>
<g>
</g>
<g>
</g>
<g>
</g>
<g>
</g>
<g>
</g>
<g>
</g>
<g>
</g>
<g>
</g>
<g>
</g>
<g>
</g>
<g>
</g>
<g>
</g>
</svg>
